#!OML:ASF I:\golf\golf\golf 2\Subject 1\2002-09-07\Subject1.ASF
:FULLY-SPECIFIED
:DEGREES
232
root 0.630808 17.9554 -5.05619 23.5381 10.9015 -3.74886
lowerback 8.04336 1.3484 -2.68283
upperback 6.52763 1.62216 4.44649
thorax 2.07811 0.634299 6.04832
lowerneck -14.7443 0.327998 0.436174
upperneck 39.6773 4.82128 -10.1893
head 17.3962 0.759247 -3.8131
rclavicle 2.78299e-015 -6.75868e-015
rhumerus -9.12278 -0.49399 -79.9327
rradius 34.9927
rwrist -12.1386
rhand -21.7635 12.4169
rfingers 7.12502
rthumb 4.6371 -17.5124
lclavicle 2.78299e-015 -6.75868e-015
lhumerus -18.5836 -8.94582 85.6248
lradius 37.8999
lwrist 9.89129
lhand -11.8244 31.0358
lfingers 7.12502
lthumb 14.2262 60.5286
rfemur -47.6892 -0.186073 20.1758
rtibia 24.9939
rfoot -5.10187 2.23207
rtoes -1.72188
lfemur -33.356 1.27764 -13.7959
ltibia 29.8536
lfoot -18.2992 -4.59346
ltoes -10.9559
233
root 0.589065 17.9518 -5.01755 24.0674 11.4043 -3.38802
lowerback 8.16808 1.15453 -2.99158
upperback 6.70506 1.34496 4.73597
thorax 2.22368 0.471667 6.55584
lowerneck -14.9629 0.395123 -0.0650055
upperneck 39.5021 5.12395 -10.2941
head 17.3863 0.791158 -3.70405
rclavicle 1.59028e-014 2.74323e-014
rhumerus -8.4123 0.857166 -79.5923
rradius 35.062
rwrist -12.8857
rhand -22.5545 12.892
rfingers 7.12502
rthumb 3.8733 -17.0526
lclavicle 1.59028e-014 2.74323e-014
lhumerus -18.4486 -8.30581 85.8889
lradius 38.5649
lwrist 9.96035
lhand -11.9004 31.2397
lfingers 7.12502
lthumb 14.1529 60.7377
rfemur -48.1479 -0.371017 20.0011
rtibia 25.3159
rfoot -4.43197 2.58324
rtoes 3.90812
lfemur -33.7699 1.21817 -13.9692
ltibia 29.6781
lfoot -18.3629 -5.11686
ltoes -10.5126
234
root 0.548929 17.9499 -4.9802 24.5393 11.9437 -3.01534
lowerback 8.46484 1.1043 -2.9589
upperback 6.8517 1.27701 4.78431
thorax 2.22414 0.435308 6.59188
lowerneck -15.0711 0.28236 -0.16278
upperneck 39.2124 4.96556 -10.3107
head 17.2351 0.714596 -3.70089
rclavicle 6.36111e-015 3.1408e-014
rhumerus -7.86068 1.38821 -79.4613
rradius 35.0848
rwrist -13.5674
rhand -22.9443 13.5379
rfingers 7.12502
rthumb 3.4969 -16.4131
lclavicle 6.36111e-015 3.1408e-014
lhumerus -18.1796 -8.44744 85.961
lradius 39.1278
lwrist 10.1063
lhand -12.024 31.3074
lfingers 7.12502
lthumb 14.0339 60.8136
rfemur -48.5749 -0.556544 19.7797
rtibia 25.6358
rfoot -3.72379 2.8909
rtoes 8.62832
lfemur -34.0977 0.905307 -14.0566
ltibia 29.4509
lfoot -18.36 -5.43798
ltoes -9.89783
235
root 0.506665 17.9512 -4.94493 24.9514 12.5849 -2.78587
lowerback 8.89596 1.14694 -2.66294
upperback 6.95002 1.34882 4.81011
thorax 2.08425 0.483979 6.43858
lowerneck -15.1582 0.0724304 -0.032465
upperneck 38.9756 4.60325 -10.354
head 17.093 0.587206 -3.79209
rclavicle -3.18055e-015 1.03368e-014
rhumerus -7.40667 1.34734 -79.3458
rradius 35.0917
rwrist -13.5547
rhand -22.653 13.4943
rfingers 7.12502
rthumb 3.77816 -16.4519
lclavicle -3.18055e-015 1.03368e-014
lhumerus -17.8964 -9.12942 86.014
lradius 39.7014
lwrist 10.431
lhand -12.162 31.0938
lfingers 7.12502
lthumb 13.9009 60.6092
rfemur -48.9917 -0.573261 19.6071
rtibia 25.919
rfoot -3.20206 2.84504
rtoes 11.2707
lfemur -34.4088 0.498216 -13.8981
ltibia 29.193
lfoot -18.2823 -5.62239
ltoes -9.71619
236
root 0.459036 17.9513 -4.91079 25.3914 13.2138 -2.57789
lowerback 9.38225 1.19735 -2.46388
upperback 6.9921 1.42817 4.87991
thorax 1.85328 0.535106 6.38516
lowerneck -15.1678 -0.123028 0.0950434
upperneck 38.8075 4.25499 -10.3626
head 16.9688 0.469858 -3.86749
rclavicle 7.15625e-015 -6.36111e-015
rhumerus -7.0725 1.3403 -79.213
rradius 35.1905
rwrist -13.0548
rhand -22.8672 12.7111
rfingers 7.12502
rthumb 3.57132 -17.2387
lclavicle 7.15625e-015 -6.36111e-015
lhumerus -17.7967 -9.73979 86.0729
lradius 40.4153
lwrist 10.7462
lhand -12.263 30.8043
lfingers 7.12502
lthumb 13.8036 60.3264
rfemur -49.4715 -0.471928 19.3818
rtibia 26.1409
rfoot -2.77338 2.36863
rtoes 13.6573
lfemur -34.7907 0.233098 -13.7304
ltibia 28.9514
lfoot -18.2299 -5.95179
ltoes -9.24398
237
root 0.408646 17.9498 -4.87464 25.8627 13.8394 -2.34616
lowerback 9.81605 1.13195 -2.39
upperback 7.05772 1.34792 5.00819
thorax 1.69522 0.49822 6.48177
lowerneck -15.0694 -0.210988 0.072591
upperneck 38.4927 4.09154 -10.3635
head 16.7549 0.408211 -3.86611
rclavicle -3.4191e-014 -2.8625e-014
rhumerus -6.60931 1.95415 -79.1281
rradius 35.2089
rwrist -13.173
rhand -23.3416 12.4554
rfingers 7.12502
rthumb 3.11321 -17.5016
lclavicle -3.4191e-014 -2.8625e-014
lhumerus -17.9164 -9.8974 86.1021
lradius 41.404
lwrist 10.8988
lhand -12.2911 30.8223
lfingers 7.12502
lthumb 13.7765 60.3461
rfemur -49.9897 -0.540371 19.2502
rtibia 26.3318
rfoot -2.46613 1.67752
rtoes 14.3575
lfemur -35.2119 0.106897 -13.6268
ltibia 28.7386
lfoot -18.2302 -6.38187
ltoes -9.01393
238
root 0.361868 17.947 -4.8342 26.3685 14.565 -2.13671
lowerback 10.1715 1.08725 -2.04298
upperback 7.1385 1.31649 5.05834
thorax 1.59455 0.495271 6.33487
lowerneck -15.115 -0.352446 0.171777
upperneck 38.2642 3.81177 -10.3292
head 16.6143 0.317298 -3.90015
rclavicle 1.74931e-014 -2.46493e-014
rhumerus -6.0343 2.68046 -79.0138
rradius 35.1449
rwrist -14.1118
rhand -23.3242 13.0433
rfingers 7.12502
rthumb 3.13 -16.9134
lclavicle 1.74931e-014 -2.46493e-014
lhumerus -17.9886 -10.4861 86.0594
lradius 42.4918
lwrist 11.2176
lhand -12.3708 30.9176
lfingers 7.12502
lthumb 13.6997 60.4467
rfemur -50.5167 -0.880232 19.313
rtibia 26.5256
rfoot -2.35846 0.960235
rtoes 11.0726
lfemur -35.7018 -0.0192034 -13.4963
ltibia 28.5653
lfoot -18.2084 -6.79201
ltoes -9.58537
239
root 0.318659 17.9424 -4.7909 26.8674 15.3387 -1.91557
lowerback 10.5531 1.03172 -1.66193
upperback 7.26562 1.27646 5.2252
thorax 1.52909 0.485253 6.29539
lowerneck -15.3613 -0.516039 -0.0216869
upperneck 38.0657 3.60799 -10.2871
head 16.5489 0.211753 -3.86961
rclavicle 1.03368e-014 5.08889e-014
rhumerus -5.13698 3.67463 -78.4447
rradius 35.045
rwrist -14.8506
rhand -23.2189 13.0959
rfingers 7.12502
rthumb 3.23174 -16.8594
lclavicle 1.03368e-014 5.08889e-014
lhumerus -17.8403 -10.7972 86.2272
lradius 43.2969
lwrist 11.446
lhand -12.4562 30.7194
lfingers 7.12502
lthumb 13.6174 60.254
rfemur -50.9848 -1.20317 19.316
rtibia 26.7461
rfoot -2.4337 -0.112425
rtoes 6.65775
lfemur -36.2136 -0.29507 -13.3208
ltibia 28.4382
lfoot -18.1494 -7.12612
ltoes -9.98845
240
root 0.273741 17.9371 -4.7473 27.3733 16.0683 -1.69999
lowerback 10.9519 0.940095 -1.42923
upperback 7.41861 1.18098 5.55251
thorax 1.48582 0.438144 6.52071
lowerneck -15.5776 -0.661818 -0.517594
upperneck 37.6937 3.54368 -10.3237
head 16.4023 0.112626 -3.78244
rclavicle 1.27222e-014 7.95139e-016
rhumerus -4.39688 4.43476 -77.8066
rradius 35.1657
rwrist -14.5698
rhand -23.1267 12.4855
rfingers 7.12502
rthumb 3.32073 -17.4684
lclavicle 1.27222e-014 7.95139e-016
lhumerus -17.5675 -10.6309 86.6073
lradius 43.9128
lwrist 11.486
lhand -12.434 30.8194
lfingers 7.12502
lthumb 13.6387 60.3526
rfemur -51.479 -1.45218 19.2889
rtibia 27.0465
rfoot -2.50961 -1.37894
rtoes 3.78799
lfemur -36.6898 -0.645826 -13.0753
ltibia 28.2987
lfoot -18.0069 -7.5148
ltoes -8.78313
241
root 0.226901 17.931 -4.7032 27.9915 16.7968 -1.39362
lowerback 11.2833 0.982918 -1.00989
upperback 7.48421 1.28041 5.62967
thorax 1.368 0.503394 6.34893
lowerneck -15.6413 -0.952675 -0.506629
upperneck 37.3728 3.07912 -10.32
head 16.2079 -0.0684978 -3.83958
rclavicle 1.74931e-014 -8.74653e-015
rhumerus -3.89176 4.38042 -77.4752
rradius 35.1648
rwrist -14.2087
rhand -23.0171 12.2694
rfingers 7.12502
rthumb 3.42661 -17.6828
lclavicle 1.74931e-014 -8.74653e-015
lhumerus -17.3837 -11.3187 86.7588
lradius 44.688
lwrist 11.6746
lhand -12.4088 31.0519
lfingers 7.12502
lthumb 13.663 60.5834
rfemur -52.1285 -1.88701 19.3265
rtibia 27.4658
rfoot -2.58112 -2.26888
rtoes 1.63608
lfemur -37.231 -0.918321 -12.9379
ltibia 28.0945
lfoot -17.7903 -8.02163
ltoes -7.14805
242
root 0.178316 17.9227 -4.66023 28.6559 17.6493 -0.931155
lowerback 11.6474 0.89044 -0.689761
upperback 7.5292 1.19929 5.74753
thorax 1.2315 0.474769 6.29709
lowerneck -15.5716 -1.19923 -0.700919
upperneck 36.9672 2.7079 -10.2479
head 15.9472 -0.228996 -3.80352
rclavicle 2.94201e-014 3.18055e-014
rhumerus -3.37928 4.60223 -77.1682
rradius 35.1791
rwrist -14.0236
rhand -22.876 12.4922
rfingers 7.12502
rthumb 3.56286 -17.4578
lclavicle 2.94201e-014 3.18055e-014
lhumerus -17.411 -11.6906 86.9167
lradius 45.5972
lwrist 11.7808
lhand -12.4629 30.8053
lfingers 7.12502
lthumb 13.6109 60.3404
rfemur -52.8015 -2.51241 19.3267
rtibia 27.9701
rfoot -2.6912 -2.73118
rtoes 1.1097
lfemur -37.8271 -1.16044 -12.9761
ltibia 27.8337
lfoot -17.6235 -8.58565
ltoes -7.11098
243
root 0.127705 17.9095 -4.61836 29.3028 18.5475 -0.477425
lowerback 12.0402 0.782714 -0.41114
upperback 7.6704 1.09629 5.93013
thorax 1.18323 0.429705 6.3441
lowerneck -15.7138 -1.44482 -0.969232
upperneck 36.5572 2.33174 -10.072
head 15.7393 -0.394354 -3.71461
rclavicle 3.49861e-014 -2.46493e-014
rhumerus -2.59782 4.82592 -76.8031
rradius 35.1961
rwrist -13.9014
rhand -22.6787 12.7174
rfingers 7.12502
rthumb 3.75339 -17.2293
lclavicle 3.49861e-014 -2.46493e-014
lhumerus -17.1854 -11.9718 87.0806
lradius 46.4101
lwrist 11.7953
lhand -12.5549 30.6682
lfingers 7.12502
lthumb 13.5222 60.2091
rfemur -53.45 -3.09892 19.3296
rtibia 28.4767
rfoot -2.86289 -2.86018
rtoes 2.60664
lfemur -38.3853 -1.43571 -12.9474
ltibia 27.532
lfoot -17.4407 -9.1176
ltoes -7.62269
244
root 0.0791973 17.8993 -4.57238 29.908 19.2638 -0.090909
lowerback 12.4731 0.746664 -0.146135
upperback 7.76171 1.09008 6.03344
thorax 1.05031 0.435999 6.30218
lowerneck -15.7965 -1.64924 -0.921651
upperneck 36.303 1.9497 -9.95693
head 15.5973 -0.527329 -3.72072
rclavicle -6.67916e-014 -5.00937e-014
rhumerus -1.91224 5.02811 -76.5309
rradius 35.1055
rwrist -13.8397
rhand -22.7191 13.0826
rfingers 7.12502
rthumb 3.71439 -16.8647
lclavicle -6.67916e-014 -5.00937e-014
lhumerus -17.0946 -12.3788 87.1623
lradius 47.2492
lwrist 11.8755
lhand -12.6616 30.8165
lfingers 7.12502
lthumb 13.4194 60.3643
rfemur -54.0546 -3.59976 19.3925
rtibia 28.9128
rfoot -3.03602 -2.54055
rtoes 2.62813
lfemur -38.8216 -1.58694 -12.9151
ltibia 27.2032
lfoot -17.2724 -9.49641
ltoes -8.08672
245
root 0.0324518 17.9024 -4.52469 30.3633 20.0106 0.173067
lowerback 13.0845 0.700217 0.378404
upperback 7.84144 1.1064 6.08345
thorax 0.811742 0.464705 6.04975
lowerneck -15.9019 -1.85091 -0.694964
upperneck 36.0908 1.55024 -9.92515
head 15.4815 -0.655719 -3.80174
rclavicle 7.95139e-015 -1.59028e-014
rhumerus -1.30543 5.1676 -76.3195
rradius 35.0553
rwrist -13.8246
rhand -22.704 13.3547
rfingers 7.12502
rthumb 3.72893 -16.5924
lclavicle 7.95139e-015 -1.59028e-014
lhumerus -17.0799 -12.9558 87.1281
lradius 48.1399
lwrist 12.0881
lhand -12.7639 30.9879
lfingers 7.12502
lthumb 13.3207 60.5422
rfemur -54.4943 -4.0393 19.5794
rtibia 29.2586
rfoot -3.13657 -2.37643
rtoes 2.04901
lfemur -39.1159 -1.75963 -12.7481
ltibia 26.8813
lfoot -17.4144 -9.64059
ltoes -9.67608
